<?xml version="1.0" encoding="iso-8859-1"?>
<!-- Generator: Adobe Illustrator 19.0.0, SVG Export Plug-In . SVG Version: 6.00 Build 0)  -->
<svg version="1.1" id="Capa_1" xmlns="http://www.w3.org/2000/svg" xmlns:xlink="http://www.w3.org/1999/xlink" x="0px" y="0px"
	 viewBox="0 0 340 340" style="enable-background:new 0 0 340 340;" xml:space="preserve">
<g id="XMLID_1117_">
	<g id="XMLID_1118_">
		<circle id="XMLID_1119_" style="fill:#EBEBEC;" cx="170" cy="170" r="170"/>
	</g>
	<g id="XMLID_1120_">
		<path id="XMLID_1121_" style="fill:#CDCDD0;" d="M170,0c93.889,0,170,76.111,170,170c0,93.888-76.111,170-170,170"/>
	</g>
	<g id="XMLID_1122_">
		<circle id="XMLID_1123_" style="fill:#78B9EB;" cx="170" cy="170" r="140"/>
	</g>
	<g id="XMLID_1124_">
		<path id="XMLID_1125_" style="fill:#5A8BB0;" d="M170,30c77.32,0,140,62.68,140,140c0,77.32-62.68,140-140,140"/>
	</g>
	<g id="XMLID_1126_">
		<g id="XMLID_1127_">
			<polygon id="XMLID_18_" style="fill:#FFFFFF;" points="130,170 210,170 170,60 			"/>
		</g>
		<g id="XMLID_1128_">
			<polygon id="XMLID_17_" style="fill:#DEDDE0;" points="170,170 210,170 170,60 			"/>
		</g>
		<g id="XMLID_1129_">
			<polygon id="XMLID_16_" style="fill:#FF5023;" points="130,170 210,170 170,280 			"/>
		</g>
		<g id="XMLID_1130_">
			<polygon id="XMLID_15_" style="fill:#BF3C1A;" points="170,170 210,170 170,280 			"/>
		</g>
	</g>
</g>
<g>
</g>
<g>
</g>
<g>
</g>
<g>
</g>
<g>
</g>
<g>
</g>
<g>
</g>
<g>
</g>
<g>
</g>
<g>
</g>
<g>
</g>
<g>
</g>
<g>
</g>
<g>
</g>
<g>
</g>
</svg>
